<svg width="189" height="64" viewBox="0 0 189 64" fill="none" xmlns="http://www.w3.org/2000/svg">
<path d="M53.88 12.776C52.4096 11.2953 50.6611 10.1198 48.7349 9.31705C46.8086 8.51435 44.7428 8.10029 42.656 8.09869C38.7089 8.09934 34.9059 9.58209 32 12.2534C29.0944 9.58164 25.2912 8.09882 21.344 8.09869C19.2548 8.10087 17.1866 8.51619 15.2585 9.32074C13.3304 10.1253 11.5804 11.3032 10.1093 12.7867C3.83467 19.088 3.83733 28.944 10.1147 35.2187L32 57.104L53.8853 35.2187C60.1627 28.944 60.1653 19.088 53.88 12.776V12.776Z" fill="url(#paint0_linear_3_4)"/>
<path d="M35.475 39H39.75V21.45H35.475V28.325H28.825V21.45H24.55V39H28.825V31.775H35.475V39Z" fill="white"/>
<path d="M75.4754 28.275C76.9004 28.275 78.1004 29.15 78.1004 30.675H72.7504C73.0004 29.125 74.0754 28.275 75.4754 28.275ZM82.1504 34.375H77.6004C77.2504 35.125 76.5754 35.725 75.3754 35.725C74.0004 35.725 72.8754 34.875 72.7254 33.05H82.4004C82.4504 32.625 82.4754 32.2 82.4754 31.8C82.4754 27.55 79.6004 24.85 75.5254 24.85C71.3754 24.85 68.4754 27.6 68.4754 32.025C68.4754 36.45 71.4254 39.2 75.5254 39.2C79.0004 39.2 81.4754 37.1 82.1504 34.375ZM83.8807 32C83.8807 36.4 86.6057 39.2 90.0057 39.2C92.0807 39.2 93.5557 38.25 94.3307 37.025V39H98.6057V25.05H94.3307V27.025C93.5807 25.8 92.1057 24.85 90.0307 24.85C86.6057 24.85 83.8807 27.6 83.8807 32ZM94.3307 32.025C94.3307 34.25 92.9057 35.475 91.2807 35.475C89.6807 35.475 88.2307 34.225 88.2307 32C88.2307 29.775 89.6807 28.575 91.2807 28.575C92.9057 28.575 94.3307 29.8 94.3307 32.025ZM105.973 32.525C105.973 30.125 107.148 29.425 109.173 29.425H110.348V24.9C108.473 24.9 106.948 25.9 105.973 27.375V25.05H101.698V39H105.973V32.525ZM113.067 34.15C113.067 37.775 115.092 39 117.992 39H120.167V35.375H118.642C117.692 35.375 117.342 35.025 117.342 34.2V28.6H120.142V25.05H117.342V21.65H113.067V25.05H111.367V28.6H113.067V34.15ZM127.121 30.2C127.121 35.45 130.771 39.125 135.946 39.125C140.121 39.125 143.271 36.8 144.271 33H139.571C138.846 34.5 137.521 35.25 135.896 35.25C133.271 35.25 131.471 33.3 131.471 30.2C131.471 27.1 133.271 25.15 135.896 25.15C137.521 25.15 138.846 25.9 139.571 27.4H144.271C143.271 23.6 140.121 21.25 135.946 21.25C130.771 21.25 127.121 24.95 127.121 30.2ZM146.039 32C146.039 36.4 148.764 39.2 152.164 39.2C154.239 39.2 155.714 38.25 156.489 37.025V39H160.764V25.05H156.489V27.025C155.739 25.8 154.264 24.85 152.189 24.85C148.764 24.85 146.039 27.6 146.039 32ZM156.489 32.025C156.489 34.25 155.064 35.475 153.439 35.475C151.839 35.475 150.389 34.225 150.389 32C150.389 29.775 151.839 28.575 153.439 28.575C155.064 28.575 156.489 29.8 156.489 32.025ZM168.132 32.525C168.132 30.125 169.307 29.425 171.332 29.425H172.507V24.9C170.632 24.9 169.107 25.9 168.132 27.375V25.05H163.857V39H168.132V32.525ZM180.7 28.275C182.125 28.275 183.325 29.15 183.325 30.675H177.975C178.225 29.125 179.3 28.275 180.7 28.275ZM187.375 34.375H182.825C182.475 35.125 181.8 35.725 180.6 35.725C179.225 35.725 178.1 34.875 177.95 33.05H187.625C187.675 32.625 187.7 32.2 187.7 31.8C187.7 27.55 184.825 24.85 180.75 24.85C176.6 24.85 173.7 27.6 173.7 32.025C173.7 36.45 176.65 39.2 180.75 39.2C184.225 39.2 186.7 37.1 187.375 34.375Z" fill="url(#paint1_linear_3_4)"/>
<defs>
<linearGradient id="paint0_linear_3_4" x1="70.1124" y1="-10.4269" x2="21.9326" y2="49.2585" gradientUnits="userSpaceOnUse">
<stop stop-color="#E7494C"/>
<stop offset="1" stop-color="#FC888A"/>
</linearGradient>
<linearGradient id="paint1_linear_3_4" x1="9.30097" y1="30" x2="209.146" y2="30" gradientUnits="userSpaceOnUse">
<stop stop-color="#E7494C"/>
<stop offset="1" stop-color="#FFA0A0"/>
</linearGradient>
</defs>
</svg>
